<svg xmlns="http://www.w3.org/2000/svg" xmlns:xlink="http://www.w3.org/1999/xlink" id="Layer_1" x="0px" y="0px" viewBox="0 0 512 512" style="enable-background:new 0 0 512 512;" xml:space="preserve"> <g id="Artwork"> <g> <path d="M479.65,225.48H512v113.03h-32.35V225.48z"></path> <path d="M437.4,296.94l31.32,41.56h-38.28l-29.36-38.97l0,0v38.97h-32.35V225.48h50.93c27.62,0,45.24,15.63,45.24,38.67 C464.9,292.04,441.95,296.37,437.4,296.94L437.4,296.94z M414.78,251.05h-13.7v24.24h13.7c9.13,0,15.48-3.37,15.48-12.14 C430.26,254.39,423.91,251.05,414.78,251.05z"></path> <path d="M320.45,261.01c0,0-0.36-12.98-16.84-12.98c-9.16,0-14.76,3.76-14.76,9.55s3.13,8.85,26.47,12.68 c23.31,3.82,41.11,12.17,41.11,34.3s-16.75,37.17-53.04,36.44c-50.66-1.02-51.89-37.71-51.89-37.71h35.75 c0,3.37,4.49,12.62,16.81,12.89c12.47,0.27,16.59-3.52,16.59-8.82c0-8.91-10.96-10.24-26.02-12.77 c-22.32-3.73-41.32-13.04-41.32-34.76c0-5.66,0.69-36.68,50.33-36.68s50.51,37.83,50.51,37.83h-33.67L320.45,261.01z"></path> </g> <g> <polygon points="152.64,212.43 192.33,265.11 77.61,351.55 216.73,351.55 216.73,212.43 "></polygon> <path d="M103,160.45L0,238.06l77.61,103l103-77.61L103,160.45z M77.61,212.43V326.1l-64.99-86.26l88.61-66.77l29.67,39.36H77.64 H77.61z"></path> </g> </g> </svg>